<svg width="110" height="68" viewBox="0 0 110 68" fill="none" xmlns="http://www.w3.org/2000/svg">
<g id="paypal.svg">
<rect x="0.5" y="0.5" width="109" height="67" rx="33.5" fill="white"/>
<rect x="0.5" y="0.5" width="109" height="67" rx="33.5" stroke="#003087"/>
<g id="Vector">
<path fill-rule="evenodd" clip-rule="evenodd" d="M69.3346 29.0144C69.0029 31.3195 67.3398 31.3195 65.7307 31.3195H64.8155L65.4577 27.0157C65.4961 26.7557 65.7081 26.5644 65.9568 26.5644H66.3769C67.472 26.5644 68.5062 26.5644 69.0397 27.2243C69.3588 27.6193 69.455 28.2055 69.3346 29.0144ZM68.6345 23H62.5673C62.1519 23 61.7991 23.3196 61.7342 23.7535L59.2811 40.2202C59.2326 40.5448 59.4704 40.8387 59.7801 40.8387H62.8935C63.1837 40.8387 63.4309 40.6152 63.4763 40.3121L64.1725 35.6432C64.2366 35.2093 64.5902 34.8897 65.0048 34.8897H66.9245C70.921 34.8897 73.2279 32.843 73.8302 28.7851C74.1016 27.0115 73.8412 25.6172 73.0565 24.641C72.1937 23.568 70.6644 23 68.6345 23Z" fill="#009CDE"/>
<path fill-rule="evenodd" clip-rule="evenodd" d="M26.0598 29.0144C25.7282 31.3195 24.0651 31.3195 22.456 31.3195H21.5408L22.183 27.0157C22.2213 26.7557 22.4333 26.5644 22.6821 26.5644H23.1021C24.1973 26.5644 25.2314 26.5644 25.7649 27.2243C26.0841 27.6193 26.1803 28.2055 26.0598 29.0144ZM25.3597 23H19.2926C18.8772 23 18.5244 23.3196 18.4595 23.7535L16.0063 40.2202C15.9578 40.5448 16.1948 40.8387 16.5054 40.8387H19.4029C19.8175 40.8387 20.1703 40.5191 20.2352 40.0861L20.8977 35.6432C20.9619 35.2093 21.3155 34.8897 21.7301 34.8897H23.6497C27.6463 34.8897 29.9531 32.843 30.5555 28.7851C30.8269 27.0115 30.5664 25.6172 29.7818 24.641C28.919 23.568 27.3897 23 25.3597 23Z" fill="#003087"/>
<path fill-rule="evenodd" clip-rule="evenodd" d="M39.4441 34.926C39.1633 36.6829 37.846 37.8628 36.1649 37.8628C35.3224 37.8628 34.6473 37.5755 34.214 37.0323C33.7845 36.4941 33.6226 35.7266 33.7587 34.873C34.02 33.1309 35.3592 31.9138 37.0144 31.9138C37.8397 31.9138 38.5093 32.2036 38.9513 32.7517C39.3964 33.304 39.5716 34.0756 39.4441 34.926ZM43.4931 28.9405H40.5878C40.339 28.9405 40.127 29.1318 40.0879 29.3926L39.9604 30.252L39.7578 29.9407C39.1281 28.9745 37.7255 28.6507 36.3253 28.6507C33.1157 28.6507 30.3739 31.2257 29.8404 34.8365C29.5627 36.6382 29.9569 38.3596 30.9222 39.561C31.8085 40.6647 33.0734 41.1242 34.5808 41.1242C37.1685 41.1242 38.6032 39.3656 38.6032 39.3656L38.4733 40.22C38.4248 40.5446 38.6619 40.8385 38.9732 40.8385H41.5891C42.0044 40.8385 42.3572 40.5198 42.4222 40.0859L43.9929 29.559C44.0414 29.2345 43.8036 28.9405 43.4931 28.9405Z" fill="#003087"/>
<path fill-rule="evenodd" clip-rule="evenodd" d="M82.7189 34.926C82.438 36.6829 81.1207 37.8628 79.4397 37.8628C78.5972 37.8628 77.9221 37.5755 77.4887 37.0323C77.0585 36.4941 76.8973 35.7266 77.0335 34.873C77.2947 33.1309 78.6339 31.9138 80.2892 31.9138C81.1145 31.9138 81.7841 32.2036 82.2261 32.7517C82.6712 33.304 82.8464 34.0756 82.7189 34.926ZM86.7678 28.9405H83.8625C83.6138 28.9405 83.4018 29.1318 83.3627 29.3926L83.2352 30.252L83.0318 29.9407C82.4028 28.9745 81.0003 28.6507 79.6 28.6507C76.3904 28.6507 73.6486 31.2257 73.1151 34.8365C72.8374 36.6382 73.2317 38.3596 74.197 39.561C75.0833 40.6647 76.3482 41.1242 77.8556 41.1242C80.4433 41.1242 81.878 39.3656 81.878 39.3656L81.7481 40.22C81.6996 40.5446 81.9366 40.8385 82.248 40.8385H84.8638C85.2792 40.8385 85.632 40.5198 85.6969 40.0859L87.2677 29.559C87.3162 29.2345 87.0784 28.9405 86.7678 28.9405Z" fill="#009CDE"/>
<path fill-rule="evenodd" clip-rule="evenodd" d="M58.9686 28.9406H56.0485C55.7692 28.9406 55.5079 29.0871 55.3515 29.3322L51.3229 35.6116L49.616 29.5773C49.5088 29.1997 49.1803 28.9406 48.8079 28.9406H45.9378C45.5913 28.9406 45.3472 29.3016 45.4591 29.6485L48.6742 39.6389L45.65 44.1555C45.413 44.5098 45.6523 45 46.063 45H48.98C49.2562 45 49.5151 44.8568 49.6731 44.6166L59.384 29.781C59.6163 29.4258 59.377 28.9406 58.9686 28.9406Z" fill="#003087"/>
<path fill-rule="evenodd" clip-rule="evenodd" d="M90.1919 23.4525L87.702 40.2207C87.6535 40.5453 87.8905 40.8392 88.2011 40.8392H90.7059C91.1205 40.8392 91.474 40.5196 91.5382 40.0857L93.9937 23.619C94.0422 23.2944 93.8052 23.0005 93.4938 23.0005H90.6918C90.4422 23.0005 90.2303 23.1917 90.1919 23.4525Z" fill="#009CDE"/>
</g>
</g>
</svg>
