<svg width="119" height="68" viewBox="0 0 119 68" fill="none" xmlns="http://www.w3.org/2000/svg">
<path d="M72.0037 36.9539C76.447 36.9539 80.0093 33.6298 80.0093 29.2451C80.0093 24.8591 76.4457 21.5349 72.0037 21.5349C67.5616 21.5349 63.9967 24.8591 63.9967 29.2451C63.9967 33.6298 67.5603 36.9539 72.0037 36.9539ZM72.0037 25.5469C74.0542 25.5469 75.7469 27.2195 75.7469 29.2451C75.7469 31.2707 74.0542 32.9432 72.0037 32.9432C69.9531 32.9432 68.2604 31.2707 68.2604 29.2451C68.2604 27.2195 69.9531 25.5469 72.0037 25.5469Z" fill="white"/>
<path d="M91.8762 31.6645C93.3105 30.6811 94.446 29.2243 94.446 27.2393C94.446 24.1518 91.9548 21.8699 88.8069 21.8699H82.0153V36.6206H86.0798V32.6073H87.9914L89.844 36.6206H94.4053L91.8762 31.6645ZM88.8082 28.9693H86.0811V25.4869H88.8082C89.726 25.4869 90.3238 26.5096 90.3238 27.2379C90.3238 27.9676 89.726 28.9693 88.8082 28.9693Z" fill="white"/>
<path d="M96.9121 21.8699H100.977V36.6206H96.9121V21.8699Z" fill="white"/>
<path d="M109.419 21.8684L102.568 36.6179H106.924L107.638 34.9479H112.722L113.436 36.6179H117.792L110.944 21.8684H109.419ZM108.879 31.4459L110.141 28.5743H110.223L111.483 31.4459H108.879Z" fill="white"/>
<path d="M54.9723 36.6205H59.0368V25.4882H63.1209V21.8698H53.2836L62.839 1.30762H2.08209L11.6965 22.0032H16.1792L19.8581 29.9199L23.5358 22.0032H28.0277L21.2977 36.4898H18.4277L32.4592 66.6922L46.8133 35.7941C45.7015 36.4362 44.4087 36.8036 43.0281 36.8036C38.6909 36.8036 35.2453 33.5396 35.2453 29.2321C35.2453 24.9245 38.6909 21.6605 43.0281 21.6605C45.7998 21.6605 48.2188 23.1487 49.5351 25.3495L46.1459 27.3778C45.5074 26.3342 44.3445 25.6006 43.0281 25.6006C41.0155 25.6006 39.3885 27.2431 39.3885 29.2321C39.3885 31.2211 41.0155 32.8649 43.0281 32.8649C44.3458 32.8649 45.5074 32.1495 46.1459 31.0864L48.3787 32.4229L51.6014 25.4868H54.9697V36.6205H54.9723ZM33.398 36.4898H29.2496V22.0032H33.398V36.4898Z" fill="white"/>
<path d="M57.3808 48.7965C56.4303 48.7965 55.5571 48.4277 55.0248 48.0014L54.2565 49.1849C55.051 49.8243 56.2546 50.1486 57.3743 50.1486C58.966 50.1486 60.4016 49.3758 60.4016 47.7464C60.4016 46.4609 59.3672 45.8986 58.0469 45.6815L57.63 45.6135C56.741 45.4645 56.1025 45.3036 56.1025 44.7583C56.1025 44.1999 56.6873 43.8743 57.5172 43.8743C58.3262 43.8743 59.0342 44.1411 59.615 44.5007L60.3125 43.2989C59.3829 42.7471 58.5202 42.5156 57.487 42.5156C55.9111 42.5156 54.5384 43.3146 54.5384 44.8525C54.5384 46.1876 55.4889 46.7617 56.7935 46.9657L57.2642 47.0402C58.2934 47.2037 58.8322 47.3946 58.8322 47.9046C58.8336 48.4722 58.2003 48.7965 57.3808 48.7965Z" fill="white"/>
<path d="M65.4101 49.6138L64.9027 48.5363C64.6234 48.7076 64.2707 48.8711 63.943 48.8711C63.5155 48.8711 63.1773 48.6383 63.1773 48.0014V46.1354H65.0286V44.9127H63.1773V43.3958H61.7967V44.9127H60.8081V46.1354H61.7967V48.1113C61.7967 49.4334 62.4444 50.15 63.7148 50.15C64.4438 50.15 64.9591 49.9185 65.4101 49.6138Z" fill="white"/>
<path d="M71.0098 50.0191V44.9139H69.662V45.4749C69.3238 45.0604 68.8334 44.7766 68.1293 44.7766C66.7199 44.7766 65.6526 45.9313 65.6526 47.4639C65.6526 48.9978 66.7186 50.1512 68.1293 50.1512C68.8334 50.1512 69.329 49.8661 69.662 49.4595V50.0218H71.0098V50.0191ZM68.385 48.8697C67.576 48.8697 67.0634 48.242 67.0634 47.4626C67.0634 46.6819 67.576 46.0568 68.385 46.0568C69.1717 46.0568 69.704 46.6558 69.704 47.4626C69.704 48.2708 69.1717 48.8697 68.385 48.8697Z" fill="white"/>
<path d="M74.6442 50.15C75.3745 50.15 75.8911 49.9185 76.3395 49.6151L75.8321 48.5389C75.5528 48.7089 75.2001 48.8724 74.8697 48.8724C74.4423 48.8724 74.104 48.6383 74.104 48.0028V46.1354H75.9606V44.9127H74.104V43.3958H72.7261V44.9127H71.7375V46.1354H72.7261V48.1126C72.7261 49.4334 73.3764 50.15 74.6442 50.15Z" fill="white"/>
<path d="M80.6137 48.4892C80.2427 48.8018 79.7641 48.9822 79.3183 48.9822C78.6706 48.9822 78.1527 48.6605 78.0033 47.9204H81.6337C81.6521 47.804 81.66 47.6157 81.66 47.4575C81.6547 45.866 80.6465 44.7754 79.1741 44.7754C77.6401 44.7754 76.5847 45.8712 76.5847 47.4784C76.5847 49.0855 77.6729 50.1487 79.241 50.1487C80.1024 50.1487 80.8431 49.9068 81.4227 49.3758L80.6137 48.4892ZM79.161 45.9615C79.751 45.9615 80.1469 46.3302 80.2754 46.9828H78.0085C78.1291 46.3512 78.5107 45.9615 79.161 45.9615Z" fill="white"/>
<path d="M58.2999 55.4082V56.6348H60.1801C59.9847 57.6849 59.2819 58.2655 58.0783 58.2655C56.7974 58.2655 55.7695 57.3214 55.7695 55.8149C55.7695 54.3764 56.7528 53.3865 58.1033 53.3865C58.8598 53.3865 59.4721 53.6821 59.8903 54.1594L60.9523 53.1224C60.2981 52.411 59.32 51.9912 58.1478 51.9912C55.8744 51.9912 54.2433 53.5879 54.2433 55.8162C54.2433 58.1988 56.0605 59.6347 58.1098 59.6347C60.2076 59.6347 61.7245 58.0628 61.7245 55.8267C61.7245 55.6907 61.718 55.5521 61.7023 55.4108H58.2999V55.4082Z" fill="white"/>
<path d="M65.1833 54.2588C63.5916 54.2588 62.4194 55.4083 62.4194 56.9461C62.4194 58.4853 63.5929 59.6334 65.1833 59.6334C66.7789 59.6334 67.9576 58.4853 67.9576 56.9461C67.9576 55.4083 66.7789 54.2588 65.1833 54.2588ZM65.1833 58.3545C64.4058 58.3545 63.8263 57.7765 63.8263 56.9461C63.8263 56.1196 64.4058 55.5416 65.1833 55.5416C65.9594 55.5416 66.5468 56.1196 66.5468 56.9461C66.5468 57.7765 65.9594 58.3545 65.1833 58.3545Z" fill="white"/>
<path d="M70.9194 58.0536L69.5925 54.396H68.0939L70.117 59.5025H71.7074L73.7094 54.396H72.2567L70.9194 58.0536Z" fill="white"/>
<path d="M76.4405 54.2588C74.9078 54.2588 73.8497 55.3559 73.8497 56.9618C73.8497 58.5676 74.938 59.6321 76.5087 59.6321C77.3688 59.6321 78.1108 59.3915 78.689 58.8592L77.8801 57.9726C77.5117 58.2826 77.0318 58.4643 76.5873 58.4643C75.937 58.4643 75.4191 58.1426 75.271 57.4064H78.9028C78.9185 57.2887 78.929 57.0991 78.929 56.9409C78.9224 55.3494 77.9142 54.2588 76.4405 54.2588ZM75.2775 56.4675C75.3995 55.8359 75.7797 55.4462 76.43 55.4462C77.02 55.4462 77.416 55.8149 77.5431 56.4675H75.2775Z" fill="white"/>
<path d="M81.1775 54.9543V54.3946H79.8401V59.5012H81.2194V56.721C81.2194 55.9586 81.6573 55.5689 82.2972 55.5689C82.5764 55.5689 82.9042 55.633 83.1324 55.7337L83.3369 54.3698C83.1468 54.3005 82.9147 54.2573 82.6197 54.2573C81.9917 54.2586 81.5013 54.4757 81.1775 54.9543Z" fill="white"/>
<path d="M86.9149 54.2588C86.3341 54.2588 85.7742 54.4536 85.4098 54.9937V54.3948H84.0685V59.5013H85.4478V56.7029C85.4478 55.9339 85.9394 55.5482 86.5321 55.5482C87.1601 55.5482 87.5298 55.9536 87.5298 56.6937V59.5H88.9091V56.2491C88.9078 55.0643 88.0779 54.2588 86.9149 54.2588Z" fill="white"/>
<path d="M96.3759 54.2588C95.7033 54.2588 95.036 54.4863 94.6374 55.1349C94.2939 54.5922 93.6881 54.2588 92.9473 54.2588C92.3678 54.2588 91.8067 54.4536 91.4409 54.9937V54.3948H90.0996V59.5013H91.4802V56.7029C91.4802 55.9339 91.9719 55.5482 92.5632 55.5482C93.1925 55.5482 93.5623 55.9536 93.5623 56.6937V59.5H94.9429V56.7016C94.9429 55.9326 95.4332 55.5469 96.0232 55.5469C96.6486 55.5469 97.0223 55.9523 97.0223 56.6924V59.4987H98.3963V56.2478C98.3937 55.0643 97.5821 54.2588 96.3759 54.2588Z" fill="white"/>
<path d="M101.86 54.2588C100.328 54.2588 99.2682 55.3559 99.2682 56.9618C99.2682 58.5676 100.359 59.6321 101.926 59.6321C102.789 59.6321 103.527 59.3915 104.11 58.8592L103.301 57.9726C102.933 58.2826 102.452 58.4643 102.008 58.4643C101.357 58.4643 100.838 58.1426 100.692 57.4064H104.321C104.337 57.2887 104.347 57.0991 104.347 56.9409C104.341 55.3494 103.333 54.2588 101.86 54.2588ZM100.697 56.4675C100.819 55.8359 101.198 55.4462 101.85 55.4462C102.441 55.4462 102.836 55.8149 102.964 56.4675H100.697Z" fill="white"/>
<path d="M108.108 54.2588C107.527 54.2588 106.968 54.4536 106.603 54.9937V54.3948H105.261V59.5013H106.642V56.7029C106.642 55.9339 107.131 55.5482 107.725 55.5482C108.353 55.5482 108.724 55.9536 108.724 56.6937V59.5H110.102V56.2491C110.101 55.0643 109.271 54.2588 108.108 54.2588Z" fill="white"/>
<path d="M113.867 58.3545C113.437 58.3545 113.099 58.1217 113.099 57.4848V55.6188H114.953V54.3974H113.099V52.8792H111.721V54.3974H110.733V55.6188H111.721V57.5947C111.721 58.9181 112.371 59.6334 113.639 59.6334C114.37 59.6334 114.884 59.4019 115.335 59.0985L114.827 58.021C114.548 58.191 114.195 58.3545 113.867 58.3545Z" fill="white"/>
</svg>
